<svg width="328" height="225" viewBox="0 0 328 225" fill="none" xmlns="http://www.w3.org/2000/svg">
<g clip-path="url(#clip0_751_1623)">
<circle opacity="0.64" cx="207" cy="177" r="177" fill="#D3E3E8"/>
<path d="M317.768 117.971H275.609V268.513H329.28V129.388C329.275 126.36 328.06 123.458 325.902 121.317C323.743 119.177 320.818 117.974 317.768 117.971Z" fill="#455A64"/>
<path d="M317.41 266.228C317.549 266.228 317.668 233.565 317.668 193.277C317.668 152.989 317.549 120.316 317.41 120.316C317.271 120.316 317.152 152.979 317.152 193.277C317.152 233.574 317.291 266.228 317.41 266.228Z" fill="#263238"/>
<path d="M254.113 58.4657L259.869 112.928C260.861 122.197 260.375 135.997 245.548 136.864C232.646 136.657 228.121 124.945 227.218 116.307C226.781 112.199 226.424 108.781 226.344 108.367C226.344 108.367 212.242 108.515 209.781 94.8921C208.59 88.3121 207.26 74.5611 206.198 62.1103C205.649 55.658 207.568 49.237 211.573 44.1259C215.579 39.0148 221.377 35.5886 227.813 34.5294L229.143 34.3029C243.583 32.7465 252.971 44.0645 254.113 58.4657Z" fill="#FFBE9D"/>
<path d="M226.344 108.338C232.693 107.273 238.601 104.421 243.365 100.123C243.365 100.123 240.675 110.81 226.751 111.854L226.344 108.338Z" fill="#EB996E"/>
<path d="M230.364 65.5382C230.662 65.7845 232.14 64.3661 234.453 64.0902C236.765 63.8144 238.601 64.7896 238.819 64.4744C238.929 64.3267 238.591 63.844 237.827 63.3909C236.749 62.8047 235.512 62.5736 234.294 62.7309C233.088 62.8812 231.962 63.4091 231.078 64.238C230.394 64.8783 230.215 65.42 230.364 65.5382Z" fill="#263238"/>
<path d="M230.592 70.808C230.668 71.2897 230.931 71.7228 231.324 72.0153C231.717 72.3078 232.209 72.4366 232.696 72.3742C232.935 72.3533 233.166 72.2855 233.378 72.1748C233.59 72.0641 233.778 71.9127 233.93 71.7293C234.083 71.546 234.197 71.3345 234.266 71.107C234.335 70.8795 234.358 70.6406 234.334 70.4042C234.255 69.9237 233.992 69.4921 233.6 69.2C233.207 68.908 232.716 68.7782 232.23 68.838C231.991 68.8589 231.759 68.9267 231.547 69.0374C231.335 69.1481 231.148 69.2996 230.995 69.4829C230.843 69.6662 230.729 69.8778 230.66 70.1053C230.59 70.3328 230.567 70.5716 230.592 70.808Z" fill="#263238"/>
<path d="M226.047 82.1064C224.876 81.9464 223.689 81.9298 222.514 82.0571C221.968 82.0571 221.432 82.0571 221.283 81.7222C221.148 81.1733 221.182 80.5965 221.382 80.0674L222.285 75.7332C223.536 69.5571 224.34 64.5236 224.082 64.4744C223.824 64.4251 222.623 69.3995 221.382 75.5559C221.085 77.0827 220.807 78.511 220.539 79.9196C220.308 80.6222 220.337 81.3831 220.618 82.067C220.724 82.2402 220.869 82.387 221.041 82.4963C221.213 82.6056 221.408 82.6744 221.611 82.6974C221.924 82.738 222.24 82.738 222.553 82.6974C223.738 82.6432 224.911 82.4447 226.047 82.1064Z" fill="#263238"/>
<path d="M230.542 56.801C230.82 57.2935 232.637 56.7321 234.87 56.6434C237.102 56.5548 238.968 56.87 239.187 56.3578C239.276 56.1115 238.889 55.6781 238.085 55.2939C237.042 54.8177 235.896 54.6078 234.75 54.6832C233.604 54.743 232.489 55.0813 231.505 55.6682C230.761 56.0918 230.423 56.5646 230.542 56.801Z" fill="#263238"/>
<path d="M208.937 63.0756C209.215 63.4696 210.982 62.8392 213.165 62.5732C215.348 62.3073 217.194 62.4156 217.393 61.9625C217.472 61.7458 217.075 61.4109 216.281 61.1449C215.212 60.8348 214.089 60.7542 212.986 60.9085C211.874 61.0503 210.802 61.4193 209.84 61.9921C209.116 62.455 208.808 62.8884 208.937 63.0756Z" fill="#263238"/>
<path d="M254.688 68.7297C254.907 68.582 263.67 64.3956 264.93 73.7731C266.191 83.1506 256.445 82.4709 256.395 82.2049C256.346 81.939 254.688 68.7297 254.688 68.7297Z" fill="#FFBE9D"/>
<path d="M258.797 78.2746C258.797 78.2746 258.986 78.3632 259.273 78.4519C259.689 78.566 260.134 78.5166 260.514 78.314C261.506 77.8215 262.092 76.1371 261.903 74.4428C261.822 73.633 261.557 72.8519 261.129 72.1575C261.002 71.8761 260.807 71.63 260.561 71.4411C260.315 71.2521 260.027 71.1261 259.72 71.074C259.526 71.0488 259.329 71.0922 259.164 71.1967C258.999 71.3011 258.876 71.46 258.817 71.6453C258.718 71.9211 258.817 72.1083 258.757 72.128C258.698 72.1477 258.529 71.9999 258.559 71.5961C258.575 71.3583 258.677 71.1343 258.847 70.9657C259.082 70.7346 259.399 70.6038 259.73 70.6012C260.128 70.6282 260.513 70.7554 260.848 70.9708C261.183 71.1862 261.458 71.4828 261.645 71.8325C262.158 72.5881 262.475 73.4576 262.568 74.364C262.757 76.2651 262.023 78.1662 260.713 78.7375C260.469 78.8443 260.204 78.8954 259.938 78.8868C259.671 78.8783 259.411 78.8105 259.174 78.6883C258.847 78.5011 258.738 78.2943 258.797 78.2746Z" fill="#EB996E"/>
<path d="M228.895 88.381C228.766 88.1545 230.572 87.396 231.724 85.5737C232.194 84.7665 232.558 83.9024 232.805 83.0028C233.014 82.2935 233.182 81.8404 233.292 81.8601C233.401 81.8798 233.411 82.3526 233.292 83.1111C233.174 84.1266 232.835 85.1046 232.299 85.9775C231.754 86.857 230.974 87.5695 230.046 88.0363C229.411 88.3909 228.965 88.4598 228.895 88.381Z" fill="#263238"/>
<path d="M265.883 52.3289C263.591 49.1867 262.767 45.2663 261.338 41.6611C259.909 38.0559 257.477 34.4112 253.696 33.4459L253.617 33.4952C250.213 32.5101 246.163 32.8352 243.692 35.347C242.571 30.5105 237.887 27.0334 232.954 26.2256C228.022 25.4179 220.38 26.8659 215.934 29.1807C212.5 30.9341 209.324 34.165 205.533 38.8439C203.926 40.8108 202.485 42.9062 201.226 45.1087L198.249 58.3179L202.457 64.7108C202.712 65.1579 202.99 65.5919 203.29 66.011L207.836 79.8901C207.687 76.0091 206.148 62.593 206 58.7021C208.92 58.3474 211.737 57.4107 214.284 55.9482C216.83 54.4857 219.052 52.5276 220.817 50.1914C222.722 47.6599 224.121 44.5768 226.841 42.9219C230.334 40.7844 234.78 41.6906 238.819 42.6756L238.641 42.5377C240.745 43.2807 242.685 44.4177 244.357 45.8868C244.202 53.5941 245.722 61.244 248.813 68.316C249.28 69.3798 250.471 71.5469 251.602 71.8719C253.805 72.4925 254.182 70.286 255.353 69.0252C256.217 68.0993 257.606 67.853 259.144 67.7249C259.904 64.4247 260.468 61.083 260.832 57.7171C262.146 57.9858 263.504 57.9487 264.801 57.6087L263.303 54.8112C263.845 55.136 264.451 55.344 265.079 55.4219C265.407 55.4628 265.74 55.3976 266.028 55.2362C266.315 55.0747 266.543 54.8255 266.677 54.5256C266.925 53.7671 266.359 52.9889 265.883 52.3289Z" fill="#263238"/>
<path d="M239.464 37.317C239.993 37.659 240.498 38.0376 240.973 38.4498C242.187 39.6611 243.062 41.1649 243.514 42.8135C243.859 43.9401 244.088 45.0985 244.198 46.2709C244.317 47.5416 244.337 48.901 244.377 50.3391C244.388 51.848 244.494 53.3548 244.695 54.8506C244.813 55.6435 244.989 56.427 245.221 57.1949C245.422 58.022 245.831 58.7847 246.412 59.4112C246.674 59.6516 246.995 59.8212 247.342 59.9039C247.689 59.9867 248.052 59.9799 248.396 59.8841C249.065 59.6981 249.652 59.296 250.064 58.7414C250.715 57.6463 251.057 56.3978 251.056 55.1264L250.778 55.1855C251.303 56.1856 251.972 57.1047 252.763 57.914C253.515 58.6613 254.528 59.0918 255.592 59.1157C256.084 59.1194 256.567 58.99 256.991 58.7414C257.382 58.4914 257.69 58.1313 257.874 57.7071C258.045 57.3134 258.107 56.8815 258.053 56.4562C257.99 56.0755 257.797 55.7277 257.507 55.4711L257.378 55.6189C258.52 56.7217 259.95 57.4859 261.506 57.8253C261.616 57.8592 261.729 57.8758 261.844 57.8746C261.741 57.8327 261.635 57.7997 261.526 57.7761C261.308 57.7071 260.99 57.6185 260.593 57.4609C259.446 57.0145 258.4 56.3446 257.517 55.4908L257.378 55.6386C257.632 55.9056 257.796 56.2443 257.847 56.6077C257.899 56.9712 257.835 57.3415 257.666 57.6677C257.497 58.0464 257.217 58.3657 256.862 58.5838C256.478 58.81 256.038 58.926 255.592 58.9187C254.599 58.88 253.659 58.4679 252.962 57.7662C252.208 56.9705 251.573 56.0716 251.076 55.0968L250.838 54.6732V55.1559C250.816 56.3745 250.474 57.5664 249.845 58.6134C249.468 59.0908 248.946 59.436 248.357 59.5984C248.06 59.6844 247.745 59.6923 247.444 59.6216C247.144 59.5508 246.866 59.4036 246.64 59.1945C246.105 58.6065 245.727 57.8956 245.538 57.126C245.306 56.3714 245.131 55.601 245.012 54.821C244.813 53.3382 244.703 51.8448 244.685 50.349C244.685 48.9108 244.605 47.5515 244.476 46.2709C244.351 45.0804 244.105 43.9055 243.742 42.7642C243.259 41.092 242.333 39.5786 241.062 38.3809C240.594 37.9393 240.054 37.5796 239.464 37.317Z" fill="#455A64"/>
<path d="M197.911 54.6044L198.03 54.6832L198.397 54.8999C198.594 55.0228 198.8 55.1314 199.013 55.225C199.271 55.3333 199.559 55.4811 199.896 55.5894C201.831 56.2491 203.9 56.425 205.92 56.1016C208.925 55.6263 211.727 54.2991 213.989 52.2797C216.708 49.7878 218.886 46.7711 220.39 43.4144C221.243 41.6611 221.908 39.8782 222.663 38.2233C223.341 36.6125 224.254 35.1092 225.372 33.7611C226.368 32.5361 227.663 31.5835 229.133 30.9932C229.798 30.7421 230.497 30.5959 231.207 30.5598C231.874 30.5339 232.542 30.5969 233.192 30.747C235.156 31.2162 236.869 32.4056 237.986 34.0764C238.36 34.6974 238.663 35.3582 238.889 36.0464C238.895 36.0007 238.895 35.9543 238.889 35.9085C238.889 35.7903 238.829 35.6623 238.79 35.4948C238.631 34.9656 238.404 34.459 238.115 33.9877C237.653 33.2377 237.066 32.5715 236.378 32.0176C235.467 31.2881 234.407 30.7638 233.272 30.481C231.887 30.1265 230.426 30.1987 229.084 30.6879C227.568 31.2904 226.23 32.2628 225.193 33.5149C224.055 34.8813 223.122 36.4042 222.424 38.0362C221.66 39.7107 220.995 41.4838 220.152 43.2273C218.658 46.5412 216.512 49.5253 213.84 52.0039C211.616 54.005 208.86 55.3314 205.9 55.8258C203.911 56.1674 201.868 56.0255 199.946 55.4121C198.596 55.0082 197.931 54.5256 197.911 54.6044Z" fill="#455A64"/>
<path d="M209.324 68.316C209.622 68.5721 211.101 67.1438 213.413 66.8778C215.725 66.6119 217.561 67.5674 217.77 67.2522C217.879 67.1044 217.551 66.6316 216.777 66.1686C215.698 65.5872 214.462 65.3596 213.244 65.5185C212.038 65.6593 210.909 66.1846 210.029 67.0158C209.354 67.6757 209.175 68.2273 209.324 68.316Z" fill="#263238"/>
<path d="M211.289 72.591C211.363 73.0738 211.625 73.5085 212.018 73.8014C212.412 74.0944 212.906 74.2221 213.393 74.1572C213.631 74.1363 213.863 74.0685 214.074 73.9577C214.286 73.8468 214.473 73.6952 214.624 73.5117C214.776 73.3283 214.889 73.1166 214.957 72.8891C215.025 72.6617 215.047 72.423 215.021 72.1872C214.945 71.7075 214.684 71.2759 214.293 70.9837C213.902 70.6914 213.412 70.5614 212.927 70.621C212.688 70.6419 212.456 70.7097 212.244 70.8204C212.033 70.9311 211.845 71.0825 211.693 71.2659C211.54 71.4492 211.426 71.6608 211.357 71.8882C211.288 72.1157 211.265 72.3546 211.289 72.591Z" fill="#263238"/>
<path d="M202.169 43.3651C201.176 45.0298 199.499 46.6256 197.544 46.6256C196.827 46.5511 196.117 46.4227 195.42 46.2414C194.785 46.7142 195.182 48.9995 195.718 49.5807C196.214 50.0724 196.752 50.5207 197.326 50.9203C195.182 52.3683 193.048 51.9841 190.537 51.3636C190.995 53.3876 191.979 55.2574 193.391 56.7869C194.803 58.3163 196.594 59.452 198.586 60.0811C199.205 60.3321 199.875 60.4335 200.541 60.377C201.207 60.3205 201.85 60.1076 202.417 59.756C203.242 58.913 203.726 57.798 203.776 56.6236C204.431 52.3866 204.555 48.0854 204.144 43.8182L202.169 43.3651Z" fill="#263238"/>
<path d="M227.803 121.114C227.803 121.114 219.07 124.63 214.098 136.628C210.604 145.06 191.173 171.675 191.173 171.675L139.506 183.062L137.74 199.423L220.38 198.744L231.862 162.445L227.803 121.114Z" fill="#25738B"/>
<path d="M262.598 105.993L271.768 109.815C280.254 113.342 291.111 121.468 294.753 129.861C303.496 150.073 311.416 176.049 314.453 199.029C317.519 222.207 311.416 256.506 311.416 256.506L233.867 212.524L238.403 209.382L223.705 130.028L226.444 120.424L224.618 112.298C224.618 112.298 245.191 104.102 260.177 98.2214L262.598 105.993Z" fill="#25738B"/>
<g opacity="0.3">
<path d="M270.002 233.574C269.717 229.634 269.433 225.671 269.148 221.685C270.058 222.545 271.248 223.052 272.503 223.113C270.563 221.276 268.841 219.223 267.372 216.996L270.905 218.503C269.659 217.552 268.642 216.337 267.927 214.947C269.823 213.48 272.493 213.726 274.875 213.962C287.131 215.194 299.497 214.376 311.803 213.559C313.036 213.489 314.238 213.152 315.326 212.574C315.326 212.574 315.574 209.224 315.028 207.973C314.483 206.722 313.629 207.087 312.339 206.624C311.029 206.229 309.669 206.023 308.3 206.013C293.324 205.225 278.318 206.447 263.372 207.678C262.44 207.664 261.525 207.924 260.742 208.427C259.522 209.412 259.631 211.263 259.839 212.81C260.607 218.366 261.367 223.918 262.122 229.467" fill="black"/>
</g>
<path d="M224.618 126.837C224.619 127.088 224.642 127.338 224.687 127.585L225.005 129.703C225.283 131.535 225.729 134.195 226.315 137.465C227.486 144.015 229.242 153.028 231.277 162.958C233.311 172.887 235.376 181.86 236.854 188.342C237.599 191.543 238.204 194.154 238.641 196.015C238.849 196.882 239.018 197.572 239.147 198.094C239.193 198.34 239.266 198.582 239.365 198.813C239.339 198.564 239.3 198.318 239.246 198.074C239.147 197.542 239.008 196.843 238.829 195.976C238.442 194.094 237.837 191.484 237.212 188.263L231.833 162.879C229.749 152.95 227.932 143.947 226.672 137.416C226.067 134.195 225.56 131.565 225.203 129.683C225.034 128.816 224.896 128.117 224.796 127.585C224.762 127.33 224.702 127.079 224.618 126.837Z" fill="#263238"/>
<path d="M294.753 239.495C294.614 239.324 294.458 239.169 294.287 239.032L292.897 237.761C292.302 237.209 291.547 236.549 290.644 235.791C289.741 235.032 288.749 234.185 287.578 233.309C285.285 231.486 282.457 229.447 279.231 227.31C276.006 225.172 272.284 223.005 268.384 220.917C264.484 218.829 260.524 217.095 256.931 215.627C253.339 214.16 250.044 213.027 247.235 212.18C245.846 211.717 244.556 211.382 243.434 211.067C242.313 210.751 241.34 210.505 240.546 210.318L238.7 209.904C238.491 209.838 238.274 209.799 238.055 209.786C238.256 209.879 238.465 209.952 238.68 210.003L240.497 210.515C241.281 210.732 242.243 210.998 243.355 211.342C244.466 211.687 245.737 212.042 247.126 212.524C249.905 213.421 253.18 214.613 256.753 216.071C260.325 217.528 264.186 219.311 268.136 221.37C272.086 223.429 275.728 225.615 278.973 227.704C282.219 229.792 285.047 231.821 287.359 233.614C288.54 234.471 289.553 235.318 290.466 236.027C291.379 236.736 292.143 237.387 292.768 237.909L294.217 239.101C294.381 239.251 294.561 239.383 294.753 239.495Z" fill="#263238"/>
<path d="M254.946 210.446C254.877 210.574 262.42 214.78 271.818 219.843C281.216 224.906 288.838 228.915 288.908 228.787C288.977 228.659 281.435 224.463 272.036 219.39C262.638 214.317 255.016 210.328 254.946 210.446Z" fill="#263238"/>
<g opacity="0.3">
<path d="M282.199 149.65C277.385 170.336 262.668 188.795 243.077 197.217C257.17 182.244 270.24 166.353 282.199 149.65Z" fill="black"/>
</g>
<g opacity="0.3">
<path d="M225.848 133.929C223.953 142.676 225.362 153.629 229.818 161.382L230.92 159.116C229.361 152.546 227.129 140.893 225.888 133.929" fill="black"/>
</g>
<path d="M237.122 211.884C237.122 211.884 168.575 229.615 160.06 241.346C152.875 251.305 190.607 352.99 190.607 352.99L220.38 350.438L207.538 265.352L284.342 241.12L272.741 211.845L237.122 211.884Z" fill="#263238"/>
<path d="M232.21 227.822C232.21 227.822 162.134 244.715 155.048 256.723C151.743 262.328 153.917 280.728 155.147 289.416C155.981 295.267 168.366 377.143 168.366 377.143H198.665L198.001 284.668L270.806 270.099C270.806 270.099 309.888 273.054 311.416 256.506L295.1 234.56L256.594 215.677L232.21 227.822Z" fill="#263238"/>
<path d="M140.499 183.87C140.052 183.2 134.266 176.571 132.708 176.571C131.15 176.571 129.364 178.344 129.364 178.344C128.322 177.869 127.16 177.715 126.029 177.901C124.689 178.344 118.457 183.643 118.457 185.633V188.953C118.316 189.83 118.316 190.725 118.457 191.602C118.675 193.149 122.427 195.799 122.427 195.799H143.833C143.833 195.799 147.912 193.07 147.406 190.499C146.9 187.928 140.499 183.87 140.499 183.87Z" fill="#FFBE9D"/>
<path d="M129.364 178.344C128.899 178.554 128.454 178.805 128.034 179.092L124.501 181.309C124.092 181.544 123.701 181.807 123.33 182.097C122.936 182.459 122.639 182.912 122.466 183.417C122.331 183.951 122.267 184.501 122.278 185.052L122.188 186.746C122.069 189.061 121.95 191.602 121.821 194.262L121.762 195.464V195.68L121.97 195.73L123.28 196.045H123.34C123.952 196.026 124.542 195.808 125.017 195.424C125.454 195.064 125.821 194.626 126.099 194.134C126.602 193.237 126.979 192.276 127.22 191.277C127.636 189.608 127.882 187.902 127.954 186.185L127.835 186.342L131.577 184.884C132.04 184.723 132.488 184.522 132.917 184.283C132.436 184.38 131.964 184.519 131.507 184.697L127.716 186.007H127.607V186.125C127.492 187.816 127.216 189.491 126.783 191.129C126.54 192.08 126.17 192.995 125.682 193.848C125.468 194.298 125.141 194.686 124.733 194.974C124.324 195.262 123.848 195.441 123.35 195.493H123.409L122.099 195.168L122.298 195.434L122.357 194.222C122.466 191.563 122.585 189.031 122.685 186.707C122.685 186.125 122.685 185.564 122.744 185.012C122.734 184.499 122.784 183.987 122.893 183.486C123.03 183.046 123.28 182.649 123.618 182.333C123.97 182.051 124.338 181.788 124.719 181.545L128.163 179.201C128.587 178.949 128.989 178.663 129.364 178.344Z" fill="#EB996E"/>
<path d="M143.833 195.04C143.363 194.94 142.885 194.877 142.404 194.853L138.504 194.548H138.445C136.994 194.886 135.526 195.149 134.048 195.336C133.196 195.451 132.338 195.52 131.478 195.542C131.06 195.611 130.632 195.586 130.226 195.47C129.819 195.354 129.443 195.15 129.126 194.873C128.859 194.496 128.73 194.041 128.758 193.582C128.758 193.1 128.828 192.597 128.848 192.085C128.905 191.668 129.109 191.284 129.423 191.001C129.737 190.689 130.094 190.423 130.485 190.213C131.901 189.506 133.495 189.225 135.07 189.406C135.635 189.458 136.204 189.376 136.73 189.168C137.256 188.959 137.725 188.628 138.097 188.204C138.564 187.544 138.524 187.061 138.494 187.071C138.363 187.427 138.176 187.76 137.938 188.056C137.567 188.425 137.115 188.705 136.618 188.876C136.122 189.047 135.592 189.103 135.07 189.041C133.426 188.799 131.747 189.06 130.257 189.79C129.824 190.018 129.427 190.307 129.076 190.647C128.663 191.018 128.402 191.526 128.342 192.075C128.342 192.528 128.242 193.06 128.242 193.572C128.215 194.15 128.387 194.72 128.729 195.188C129.075 195.585 129.547 195.853 130.068 195.946C130.536 196.033 131.013 196.063 131.488 196.035C132.401 196.035 133.274 195.917 134.108 195.808C135.603 195.595 137.084 195.296 138.544 194.912H138.484L142.384 195.05C142.866 195.098 143.352 195.094 143.833 195.04Z" fill="#EB996E"/>
<path d="M122.049 194.952C121.553 193.634 120.977 192.348 120.323 191.1C119.819 189.776 119.153 188.519 118.338 187.357C118.68 188.724 119.183 190.047 119.836 191.297C120.342 192.64 121.092 193.878 122.049 194.952Z" fill="#EB996E"/>
<path d="M168.426 199.433L91.3237 200.418L66.5128 131.328C66.2478 130.637 66.2596 129.871 66.5456 129.188C66.8317 128.504 67.3703 127.956 68.0511 127.654C68.4176 127.485 68.8154 127.394 69.2194 127.386C69.6234 127.377 70.0247 127.452 70.3979 127.606C70.7711 127.76 71.108 127.989 71.3874 128.279C71.6668 128.568 71.8824 128.913 72.0208 129.289L96.4844 194.715L168.495 195.424C169.022 195.424 169.527 195.632 169.899 196.001C170.271 196.371 170.48 196.872 170.48 197.394C170.49 197.665 170.444 197.934 170.344 198.186C170.244 198.438 170.093 198.666 169.9 198.858C169.707 199.049 169.477 199.199 169.223 199.298C168.97 199.397 168.698 199.443 168.426 199.433Z" fill="#263238"/>
<path d="M283.32 148.103C283.32 148.103 245.608 198.99 239.762 198.99H184.732V178.304L226.345 168.562C226.345 168.562 246.828 126.502 251.374 121.114C255.919 115.725 268.037 108.466 277.098 116.582C286.159 124.699 283.32 148.103 283.32 148.103Z" fill="#25738B"/>
<path d="M184.771 180.343L175.75 179.624C175.75 179.624 175.562 176.305 173.587 175.133C171.612 173.96 171.82 171.419 170.609 171.616C169.954 171.744 169.28 171.744 168.624 171.616L161.151 165.371L154.849 161.273L149.887 160.288C149.887 160.288 146.91 161.066 149.887 163.795L153.043 165.558L155.792 168.297L149.5 165.223C149.211 165.085 148.894 165.012 148.572 165.012C148.251 165.012 147.934 165.085 147.644 165.223C145.942 165.953 144.319 166.854 142.801 167.912C142.665 168.039 142.557 168.191 142.483 168.361C142.409 168.53 142.371 168.713 142.371 168.897C142.371 169.082 142.409 169.265 142.483 169.434C142.557 169.604 142.665 169.756 142.801 169.882L140.052 172.227C140.052 172.227 139.457 175.359 142.613 174.571L145.163 173.99L148.577 177.28C148.577 177.28 137.154 174.936 136.37 175.31C135.586 175.684 134.594 177.457 136.37 179.014C138.147 180.57 145.034 180.186 146.602 181.752C148.17 183.318 158.591 192.755 161.151 193.336C163.712 193.917 184.712 199.01 184.712 199.01L184.771 180.343Z" fill="#FFBE9D"/>
<path d="M140.132 172.197C140.671 171.87 141.188 171.508 141.68 171.114C142.146 170.769 142.672 170.365 143.347 169.932C143.665 169.715 143.996 169.498 144.34 169.282C144.648 169.054 145.01 168.909 145.392 168.858C146.174 169.026 146.917 169.336 147.585 169.774C148.26 170.139 148.855 170.483 149.361 170.759C149.881 171.122 150.441 171.426 151.029 171.665C150.612 171.188 150.119 170.782 149.57 170.464C149.083 170.129 148.498 169.745 147.823 169.351C147.486 169.154 147.128 168.957 146.751 168.76C146.341 168.524 145.883 168.383 145.411 168.346C145.274 168.318 145.132 168.318 144.995 168.346C144.879 168.384 144.766 168.43 144.657 168.484C144.456 168.58 144.26 168.689 144.072 168.809C143.704 169.035 143.367 169.262 143.079 169.498C142.454 169.951 141.908 170.395 141.461 170.779C140.558 171.587 140.072 172.148 140.132 172.197Z" fill="#EB996E"/>
<path d="M167.771 170.858C167.692 170.976 168.624 171.784 169.756 172.828C170.887 173.872 171.741 174.739 171.85 174.63C171.431 173.792 170.84 173.05 170.113 172.453C169.476 171.739 168.672 171.191 167.771 170.858Z" fill="#EB996E"/>
<path d="M251.374 121.114C250.564 122.103 249.834 123.153 249.19 124.256C247.89 126.393 246.054 129.585 243.851 133.712C239.415 141.967 233.311 153.935 226.156 168.503L226.295 168.385L184.672 178.098H184.474V199.325H187.223H233.996H239.316C239.547 199.339 239.779 199.339 240.01 199.325C240.244 199.279 240.471 199.203 240.685 199.098C241.101 198.881 241.496 198.627 241.866 198.34C242.558 197.828 243.22 197.279 243.851 196.695C246.262 194.442 248.551 192.065 250.709 189.573C254.937 184.806 258.648 180.205 262.072 175.99C268.841 167.538 274.13 160.554 277.763 155.727L281.921 150.133C282.377 149.492 282.725 149.01 282.983 148.665C283.241 148.32 283.33 148.153 283.33 148.153C283.33 148.153 283.191 148.31 282.933 148.635L281.831 150.073L277.594 155.59C273.912 160.387 268.573 167.331 261.774 175.753C258.37 179.949 254.609 184.53 250.381 189.287C248.223 191.757 245.937 194.115 243.533 196.35C242.904 196.923 242.241 197.459 241.549 197.956C241.21 198.198 240.851 198.413 240.477 198.596C240.11 198.772 239.701 198.843 239.296 198.803H233.976H187.203H184.712L184.97 199.059C184.97 191.967 184.97 185.032 184.97 178.373L184.781 178.62L226.394 168.789H226.493L226.543 168.7C233.649 154.112 239.703 142.105 244.069 133.84C246.243 129.693 248.039 126.492 249.309 124.335C249.954 123.271 250.441 122.443 250.828 121.931C251.215 121.419 251.374 121.114 251.374 121.114Z" fill="#263238"/>
<path d="M256.852 117.784C256.852 117.873 258.142 117.361 260.246 116.888C261.482 116.616 262.736 116.428 263.997 116.326C265.54 116.209 267.09 116.209 268.632 116.326C270.17 116.487 271.693 116.767 273.187 117.164C274.409 117.495 275.606 117.909 276.77 118.405C278.755 119.262 279.886 119.991 279.936 119.912C279.712 119.688 279.458 119.496 279.182 119.341C278.459 118.868 277.702 118.446 276.919 118.08C275.757 117.525 274.553 117.064 273.316 116.701C271.801 116.27 270.25 115.977 268.682 115.824C267.11 115.681 265.529 115.681 263.958 115.824C262.675 115.954 261.404 116.181 260.157 116.504C259.321 116.721 258.501 116.997 257.705 117.331C257.14 117.567 256.832 117.745 256.852 117.784Z" fill="#263238"/>
<path d="M233.927 178.009C233.312 176.242 232.358 174.609 231.118 173.202C230.015 171.684 228.622 170.396 227.019 169.41C226.92 169.528 228.826 171.143 230.721 173.517C232.617 175.891 233.778 178.078 233.927 178.009Z" fill="#263238"/>
<path d="M235.187 171.665C233.078 169.811 230.331 168.834 227.516 168.937C227.516 169.094 229.332 169.282 231.485 170.05C233.639 170.818 235.098 171.793 235.187 171.665Z" fill="#263238"/>
<path d="M326.928 210.446L267.838 212.495C267.632 212.502 267.43 212.553 267.245 212.643C267.061 212.733 266.897 212.861 266.765 213.018C266.633 213.175 266.536 213.357 266.48 213.554C266.423 213.751 266.409 213.957 266.439 214.159L274.944 284.491H261.626L254.758 207.067C254.68 206.443 254.735 205.809 254.917 205.206C255.1 204.603 255.406 204.045 255.818 203.566C256.23 203.087 256.737 202.698 257.308 202.424C257.879 202.15 258.501 201.997 259.135 201.975L328.516 199.512L326.928 210.446Z" fill="#455A64"/>
<path d="M101.996 205.324H111.255V207.363L90.8704 400.754H81.3629L101.996 205.324Z" fill="#455A64"/>
<path d="M308.72 205.324H299.46V207.402L318.466 400.695H327.973L308.72 205.324Z" fill="#455A64"/>
<path d="M308.72 205.324C308.72 205.324 308.72 205.669 308.799 206.309C308.879 206.949 308.958 207.974 309.077 209.264C309.325 211.855 309.682 215.676 310.149 220.582C311.141 230.432 312.481 244.646 314.178 262.278C317.632 297.503 322.406 346.311 327.725 400.685L327.973 400.399H318.466L318.724 400.636C309.712 309.836 302.08 232.915 299.54 207.363C299.54 206.378 299.54 205.826 299.54 205.284L299.47 205.353H306.417H308.124H308.69H308.144H306.457L299.431 205.304H299.361V205.383C299.361 205.925 299.361 206.496 299.361 207.461C301.852 233.013 309.345 309.904 318.217 400.764V401H328.241V400.714C322.842 346.282 317.989 297.414 314.486 262.15C312.709 244.548 311.29 230.344 310.298 220.523C309.802 215.598 309.415 211.855 309.157 209.264C309.018 207.993 308.918 207.018 308.849 206.309C308.779 205.6 308.72 205.324 308.72 205.324Z" fill="#263238"/>
<path d="M66 199.03H331V207.353H66V199.03Z" fill="#455A64"/>
<path d="M94.2149 207.363C94.2149 207.501 147.032 207.619 212.166 207.619C277.299 207.619 330.137 207.501 330.137 207.363C330.137 207.225 277.329 207.107 212.166 207.107C147.003 207.107 94.2149 207.205 94.2149 207.363Z" fill="#263238"/>
</g>
<defs>
<clipPath id="clip0_751_1623">
<rect width="328" height="225" fill="white"/>
</clipPath>
</defs>
</svg>
